
<svg xmlns="http://www.w3.org/2000/svg" width="79" height="52" xmlns:xlink="http://www.w3.org/1999/xlink"><defs><path id="a" d="M0 0h79v52H0V0z"/></defs><g fill="none" fill-rule="evenodd"><mask id="b" fill="#fff"><use xlink:href="#a"/></mask><path fill="#E5002D" d="M78.71 12.052v-.264h.133c-.077.265.016.114-.133.264zm-.665-2.116c.09.044.177.09.266.132v.265h-.132c-.08-.264.02-.114-.133-.265v-.132zm-10.898 10.71c.55-.324.783-1.014 1.462-1.19v-.132c.13.044.265.09.398.133v-.133h.132v.133c.61.13 1.458.845 1.728 1.322H71v.13c-.17.11-.158.092-.265.265-.505.054-2.32.59-2.79.397l-.134-.264-.397.132s-.193-.228-.266-.265v-.53zM51.863 47.488c.092-.296.286-1.224.132-1.72h-.132v-.66h-.133V44.05h-.134v-.264h-.132v-.397h-.133v-.662l-.265-.132c-.044-.44-.09-.882-.133-1.322H50.8l-.134-.53h-.133v-.793H50.4v-.396h-.132l-.134-.925h-.132v-.265h-.133v-.53l-.267-.132v-.793h-.133v-.265h-.133v-.396c-.088-.046-.177-.09-.266-.133v-.397h-.13v-.264h-.134c-.09-.265-.178-.53-.266-.794h-.133v-.66l-.266-.133v-.265h-.132v-.265h-.133v-.397h-.132v-.264h-.134c-.045-.22-.09-.442-.133-.662h-.133v-.53h-.133v-.264h-.132v-.66h-.133v-.53h-.133v-.528h-.133v-.53h-.134c.045-.087.09-.176.133-.264h-.134v-.264h-.133c-.034-.155.22-.23.133-.53h-.133v-.66c-.04-.183-.125.054-.132-.133h.133v-.528h-.132v-.794h-.133l-.132-2.248h-.133v-1.983h-.133V20.118h-.134l.133-.397c.012-.263-.134-.263-.134-.263-.06-.273.133-.397.133-.397.063-.318-.185-.71-.267-.926h.266v-2.248h.132v-.396h.133v-.793h.132v-.266h.134v-.66h.133v-.264h.133c-.044-.22-.09-.44-.133-.66.133-.09.266-.177.4-.265v-.396h.132v-.265h.133v-.53h.133v-.263c.09-.045.178-.09.267-.133v-.397h.132l.133-.53h.132c.044-.175.09-.352.133-.527l.266-.133c.09-.264.177-.528.266-.793l.4-.265v-.265l.264-.132c.045-.132.09-.265.133-.397h.133l.133-.397h.266v-.265l1.195-1.058.133-.264c.396-.286.648-.248.797-.794l1.595-.53c.045-.087.09-.176.133-.264l.665-.132.132-.265h.4v-.133h.265v-.132h.4v-.133h.265l.132-.264c.134.044.267.09.4.133V2.93h.265v-.132h.532l.264-.396h.134v.13l.265-.13c.08.057.017.21.266.13V2.4h.265v-.133h.53l.135-.264h.133v.132l.797-.132V1.87h.133v.133c.353.02.39-.13.4-.133h2.258v.133l.267-.133v.133h.93v.132h.266v.132h.53V2.4h.4v.13h.4v.134h.264v.132l1.197.265v.132c.177.045.354.09.532.133v.132h.398v.132h.4v.132h.397v.132h.4c.045.088.09.176.133.264h.4v.132h.265v.133h.4l.132.264h.265c.045.088.09.177.133.265h.266c.045.087.09.176.133.264h.266l.266.397.928.66V6.5h.4c.133.477.51.72.797 1.058h.133v.265l.266.133v.132l.398.264v.264l.4.265v.263h.132l.133.53h.133l.132.792h.134v.662h.133v1.322h.13l-.13.792h.13c.042.203-.13.258-.13.264-.025.167.2.22.13.53h-.13c-.038.183.13.264.13.264v.13h-.13v1.06h-.134v.396h-.134v.397h-.132l-.133.53h-.133l-.133.527c-.132.09-.264.177-.398.265l.134.397h-.134v.132l-.265-.132v.132c-.335.212-.305.473-.532.793l-.53.397c-.095.163.084.082.13.133-.043.087-.088.176-.13.264-.43-.05-.39-.12-.667-.263v-.265c-.343-.095-.432-.206-.664-.397v-.132l-.4-.132-.13-.264h-.267l-.133-.264h-.266v-.132l-.266.132c-.044-.088-.09-.176-.132-.265h-.267v-.132h-.265v-.132h-1.86v.132h-.4v.132h-.4v.133h-.264c-.045.088-.09.176-.133.264h-.265c-.044.088-.09.177-.133.265h-.266c-.044.087-.09.175-.132.263l-.665.53c-.045.175-.09.35-.134.528-.133.09-.265.177-.4.265-.043.31-.087.618-.132.926h-.132v.265h-.133c-.135.397-.267.794-.4 1.19h-.133c.027.214.156.15.266.265-.09.132-.178.264-.266.397.133.044.266.088.398.13v.266l1.73.53v.264l1.46.528.266-.132v.132c.533.044 1.065.09 1.596.133v-.133h.4v-.132l.397.132h.134v-.132h.133v.132h.132v-.132h.532v-.132h.133v.133l.398-.132v.133h.134l-.135 2.645h-.132v.264H71.4c-.066.21.13.253.133.265v.132H71.4v.395h-.133v.397h-.133v.264H71v.397l-.265.133v.264h-.133c-.154.197-.19.232-.265.53h-.134s-.27.004-.132.13h.133c-.23.496-.676.674-.797 1.19-.362.092-.3.18-.665.265l-.13.397c-.33.072-1.675.61-1.862.793-.368-.058-.402.018-.532-.264v-.263c-.09-.044-.177-.088-.265-.133v-.264l-.398-.132c-.045-.09-.09-.177-.133-.265-.32-.3-.688-.552-1.197-.66v-.266c-.388-.09-.525-.213-.798-.396v-.13h-.664l-.93-.134v.133l-.93.13c-.142.167-.235.14-.398.266v.13h-.266c-.133.178-.266.354-.4.53h-.132v.265c-.09.045-.177.09-.266.133l-.133.926h-.132c-.187.49-.232.994-.4 1.453.386.102.03.073.4 0-.042.416-.143.62-.267.926.117.06.256.258.267.263h.398v.133c.29-.047.728-.152 1.197 0v.132h.532c.603.206 1.26.633 1.992.66.114.15-.017.02.133.133-.046 1.444-.622 1.917-1.063 2.91l-.664.133c-.045-.22-.09-.44-.133-.662h-.134c-.18-.247-.304-.305-.397-.66-1.394.02-2.045.43-3.19.926-.23.54-.484 1.162-.53 1.85.397.09.797.177 1.195.265.312 1.718.333 3.66-.266 5.158v.397h-.133c-.09.264-.178.528-.267.793h-.132c-.132.176-.266.352-.398.53h-.266v.263c-.355.178-.71.354-1.064.53v.132h-.398v.133h-.266v.132l-.93.132v.13h-.266v.134c-.532.043-1.064.087-1.595.132v.132h-.4V50c-.005 0-.33-.118-.53-.132l.266-2.38zm-7.178-35.833h.134v.925h-.135v-.925zm-1.063 5.024v-.265h.133v.133h.133c-.152.15 0 .052-.266.13zm-.132 6.61h.265v-.396h-.133v-1.85h-.132v-.133h.132v-.925h.133v-.132h-.133c-.065-.316.142-.35.133-.53h-.133v-.66s-.173.012-.132-.264h.132v-.134l-.132-.132.265-.132v-.53h.133c.044-.528.09-1.057.133-1.586h-.132v-.132h.133v-.53h.267c-.045-.13-.088-.263-.133-.396h-.133c-.077-.382.233-.298.267-.397.084-.244-.084-.187-.133-.263l.133-.66h.133v.396h.133v-.53h.132v-.13h-.132v-.53h.4l.264-1.322h.133v-.263h.133c-.044-.22-.09-.44-.133-.662h.133v-.132h-.133c.044-.265.09-.53.133-.793h.133v.132h.133v.53h.132v-.266h.133V9.54c.088-.045.177-.09.266-.133v-.264c.09-.044.177-.09.266-.133v-.264l.266-.132c.086-.204-.133-.263-.133-.265v-.132h.132v-.794h.133v.66h.133v-.13h.133l.134-.398h.133v-.264h.132c.182-.238.21-.26.265-.66h-.398v-.134c.174-.106.156-.093.266-.264.17.08.192.22.265.264.215.006.465-.33.93-.397.063-.556.194-.428.4-.79h.132l-.266-.398h.133c.044-.088.09-.177.133-.265h.133c.023.02-.076.45.133.265V4.78c.133-.045.266-.09.398-.133v-.132c-.02-.023-.45.075-.265-.132H50c.117-.205.195-.277.4-.397v.397h.264l.4-.53h.132c-.045-.087-.088-.175-.133-.264h.133v-.133h.133c.024.02-.074.45.134.265V3.59c.786-.21.21-.475.664-.662v.264c.355-.175.71-.352 1.064-.528l.133-.397c.132.044.265.09.398.133v-.133l.797-.264c.097-.365.038-.296.4-.397.35-.39.648-.213 1.196-.397v-.133h.53V.945h.267V.813h.53V.68h.533V.548h.532V.416h.532V.283h1.328v-.13h.267V.018c.28-.084.398.132.398.132.088-.044.177-.09.266-.133V.15h.265l.133.264c.26.144.062-.22.132-.264.09-.044.178-.09.267-.133v.263h.265V.02c.29.1 1.01 0 1.33.132l.132.264.266-.133v.133h.133V.283h.132v.133h.4v.132l.664-.132V.68c.594-.01.95.05 1.328.265.045.088.09.176.133.264h.134v-.133c.242-.055.208.114.265.132h.664c.044.132.09.264.133.396l.4-.132v.132h.398v.132l.664.132v.133l.398.132V2.4h.133v-.133c.115-.25.133.264.133.264l.532-.13v.13H71l.134.266h.266c.044.088.09.176.133.265h.4l.264.397h.4l.13.265h.268l.53.66h.4v.133c.208.15.23.18.532.264v.264h.265c.197.116.123.82.532.396v.397c.528.147.544.38.797.794h.134v.265l.4.132.132.397.266.132v.265l.266.133c.248.425-.236.332.398.53l.4 1.19h.265c.05.273.133.26.134.263v.794h.132l.134.66h.133l-.133.398h-.134v.528l.4-.132v.53h-.133c-.152-.152 0-.054-.267-.133v.662h.134v-.132c.114-.25.133.264.133.264h.132c.095.16-.112.042-.132.132l.132.397h-.132v.528h.132c.006.035-.215.483-.132.795h.132v1.058c-.162.544-.357 1.162-.4 1.85h-.397v.133h.133c.12.144-.02.026.134.133v-.134h.132v.397c-.296.198-.43.536-.664.794l-.266.13v.398l-.265.133v.264l-.398.264c-.263.44.216.456-.532.662v.396h-.664c-.037.086-.103.474-.134.53l-.398.263v1.455h-.133c-.085.215.13.247.134.265v1.85h.133c-.09.397-.177.794-.266 1.19h-.264c.05.15.226.255.132.53l-.266.132-.133 1.586h-.266c-.2 1.18-.952 1.86-1.197 2.908h-.265v.397c-.328.2-.084.166-.266.398l-.266.132v.132c-.195.126-.414-.055-.53.133v.264h-.135v.396H71.4v.264c-.68.075-.43.285-.798.53-.4.13-.797.263-1.196.396v.132h-.266v.132l-.4-.132v.132l-.53.132v.132l-.4-.132v.132c-.252.215-.265.443-.264.926h-.267l.133.793-.266.133v.793h-.133c-.133.36-.08.758-.266 1.057h-.133c-.044.132-.09.264-.133.397l-.266.13c-.044.222-.09.442-.132.663h-.133l-.133.264h-.265v.134c-.273.232-.413.247-.53.66h-.268v.265c-.606.063-.66.367-1.063.528l-1.593.265c-.05.636-.24 1.443-.4 1.982v.926c-.088.046-.177.09-.266.133v.794l-.264.132c-.045.308-.09.616-.133.924H60.9c-.12.205-.105.322-.133.66h-.265c-.058.266-.65 1.337-.798 1.456h-.266c-.177.265-.354.53-.532.793h-.398l-.133.265-1.196.132v.133h-.4v.13h-.133v-.13c-.187-.026.05.086-.133.13h-1.33v-.13h-.132v.13h-.664v-.13h-.133v.13h-.665c-.576-.042-1.152-.086-1.727-.13v-.133l-.93-.132-.532.66c-.18.12-.985.345-1.33.266 0 0-.113-.194-.397-.133v.134h-.665v-.133c.88-.08 1.112-.696 1.33-1.453h.132c-.044-.176-.09-.353-.133-.53-.483-.112-.622-.378-.664-.925.41.083.46.212.93.265.155-.41.14-1.115.133-1.72h-.133c-.09-.44-.177-.88-.266-1.32h-.133v-.398h-.133v-.53h-.13v-.66h-.134v-.265h-.133v-.397h-.133c-.007-.03.215-.507.133-.794h-.133v-.792h-.133v-.662h-.133v-.396h-.133v-.926h-.132v-.397h-.133l-.132-1.057h-.134v-.528h-.133v-.397h-.133v-.397h-.133v-.66l-.265-.132v-.397h-.133v-.396h-.133c-.09-.396-.178-.793-.267-1.19h-.132v-.264l-.265-.133V34h-.133v-.395h-.133v-.662h-.134v-.53h-.133v-.263h-.133v-.397l-.266-.132c.045-.132.09-.263.133-.396h-.133v-.264h-.132v-.66h-.133v-.53h-.135v-.794h-.132v-.528h-.133v-.53h-.133v-.528l-.266-.132v-.133h.134c.05-.236-.118-.212-.133-.264v-.793h-.132l-.133-.528h-.133v-1.06h.133l-.265-1.19zm-.133-5.553c.15-.15 0-.052.265-.132v.132h-.265zM25.414 49.47c.362-.09.3-.178.664-.263-.08.464-.072.67-.53.793l-.134-.53zm-4.52-15.337v-.264h.134c-.076.265.016.113-.133.263zm-4.12-8.727h.135v.53h-.135v-.53zM8.802 41.14l-.265.134v.264l-.4.264-.13.397h-.268l-.398.528-.932.265c-.113-.15.02-.02-.133-.133.01-.295.152-2.384.267-2.512v-.794h.132c.233-.302.074-.085.4-.264v-.132h.398l.133-.265c.22.045.443.09.664.133v-.133H9.33c.01.96-.16 1.664-.53 2.248zM1.73 13.25c.47-.038.65-.18 1.063-.265v-.53l.665.134c.328-.55.256-.157.665-.397v-.133c.244-.183.31-.305.665-.396v-.264h.265v-.264l.4-.132v-.133h.265c.044-.087.09-.176.133-.264.177-.044.354-.09.53-.132l.134-.264c.177-.044.355-.087.53-.132l.268-.396h.4c.042-.09.087-.177.13-.265h.4l.532-.66h.265l.134-.266h.266v-.132h.266c.044-.088.09-.176.133-.264h.4v-.13h.264l.132-.266h.266v-.132h.4V7.43c.22-.045.44-.09.663-.133.046-.087.09-.176.134-.264h.532c.044-.088.09-.176.133-.264.26-.062.174.075.265.13h.265v-.264l.798-.132v-.132c.312-.092.354.143.532.132v-.132h.398V6.24h.532c.183-.043-.055-.128.133-.132 0 0 .118.165.266.13v-.13c.31-.044.62-.09.93-.133v.133c.114.015 1.063-.262 1.46-.133v.133h.4v.13l.53.134v.132h.4c.044.088.09.176.132.265L21 7.032v.264l.132-.132c.132.045.266.088.4.132v.265h.398v.264h.265v.265c.133.09.266.177.4.265v.265l.797.66.265.794h.133c.195.25.315.42.398.793.725.216.742.975 1.064 1.587h.133v.264h.133v.53l.266.132.133.396h.132l.398 1.323.266.13-.133.266c.134.087.267.175.4.264v.397h.132v.396h.134v.264h.133v.397c.087.044.176.09.264.133v.396l.266.132v.53h.133v.13h-.133v.134l.266.13v.265h.133l.132.66c.088.046.177.09.266.134v.66h.133c.152.15 0 .053.266.132v.66c.09.046.177.09.266.133v.397l.265.132.134.53h.134l.132.792h.133v.265h.133v.266c.088.044.176.088.265.13v.398h.133v.265h.134v.263h.133v.265h.132v.264h.133l.133.53c.088.043.177.087.265.132l.267.792.266.133v.263h.133c.044.133.09.265.133.397l.265.132v.265l.532.396v.265l.398.265v.264l1.064.925v.265l.663.53v.263l1.86 1.72v.263l1.064.926c.09.13.177.264.266.395h.265l.798.926h.265c.135.177.268.354.4.53h.267l.132.265.796.264c.09.13.178.263.266.396h.133v.264c.204.248.642.22.93.397.045.088.09.176.133.264h.4l.132.265 2.26-.528v-.264l.398.13v.134c.28.086.4-.133.4-.133h.796s-.016-.145.266-.13v.13h.133v-.13c.49-.1.766.15.93.395.14.188.094.985 0 1.454h-.265v.264c-.743.155-1.207.595-1.86.794-.488-.045-.976-.09-1.463-.133-.917-.01-1.667.216-2.392 0h-.665v-.133l-.665-.132-.132-.265h-.398v-.132l-.797-.132v-.132h-.266v-.133h-.4v-.13h-.265v-.133h-.4c-.626-.28-.75-.822-1.594-.926v-.396c-.097-.183-.787-.476-1.063-.528-.085-.362-.173-.3-.265-.66h-.267l-.265-.795h-.266v-.264c-.452-.255-2.393-2.284-2.525-2.776h-.267v-.264c-.415-.235-.63-.538-1.196-.66l.132-.53h-.133c-.208-.75-.233-.265-.664-.53-.09-.13-.178-.264-.267-.396h-.132v-.396l-.798-.53c.05-.448.13-.396 0-.793l-.398-.13-.134-.662.267.132v-.132c-.15-.15-.052 0-.132-.265-.28-.103-.615-.185-.798-.397.55-.47-.155-1.218-.4-1.718h-.398c-.102-.426-.2-.285-.265-.794.09.044.177.088.265.133v-.133h-.132v-.264h-.133c-.124-.174-.1-.235-.133-.53-.35-.01-.452-.05-.665-.13v-.134h.398c-.125-.546-.155-.154-.4-.396v-.132h.134v-.133h-.133v-.396h-.133v-.133h-.133v.132c-.22.128-.113-.19-.134-.266.152-.15.053 0 .134-.264-.135.102-.13.163-.266.264v-.264c-.55-.495-.154-.68-.4-1.323h-.132v-.264h-.132v-.264l-.267-.134-.132-.66h-.133V18.8h-.134v-.264h-.132v-.264h-.133v-.264h-.133v-.265h-.133v-.265h-.133v-.396h-.132l-.134-.397h-.265c-.05-.495-.366-1.23-.665-1.455-.133.045-.266.09-.398.133l-.134-.397c-.088-.044-.177-.088-.265-.13v-.266l.266.132v-.132h-.133v-.265c-.088.044-.177.09-.265.133l-.134-.662c-.22-.176-.442-.353-.664-.528v-.265l-.53-.396v-.265l-.268-.132v-.264l-1.063-.662-.798-.132V11h-.266v-.133h-.4v-.132h-.264v-.132c-.266-.044-.532-.09-.798-.132v-.13l-.4.13v-.13h-.13v.13H14.22s-.114.212-.398.133v-.132h-.266v-.13l-.797.13v-.13h-.932s-.05.187-.4.13c-.014 0-.053-.176-.264-.13v.13h-.4v.133h-.663v.132h-.265v.132h-.93V11l-.665.132v.132l-.53.132v.133h-.4v.13h-.4v.133l-.53.133v.13h-.267l-.133.266h-.265c-.045.088-.09.176-.133.265l-.797.66c-.045.133-.09.265-.133.397-.266.044-.532.09-.798.132-.22.31-.443.618-.664.926v.264h-.134v.264c-.088.045-.176.09-.265.133v.264H2.66l-.133.926h-.133v.397H2.26v.528h-.134v.794h-.133v.793H1.86v.66H1.73v.662h-.134v1.587h-.132v.794h.132v.132h-.132v1.85H1.33v.133h.132v.794h.132v.264h.134c.172.342.123.676.265 1.06h.133v.66h.133v.53h.132v.396h.133v.528h.133l-.133.397h.133v.265h.133v.397h.134l.266.794h.133v.264h.132c.09.265.178.53.266.793.09.044.178.09.267.133l.133.528.532.397v.266h.133l.265.396h.4c.044.088.087.177.132.265h.398v.132h.267v.13h.398l.133.265h.265l.267.265h.265v.132h.266v.133h.267v.13h.266v.134l.53.13v.133c.09-.044.18-.087.268-.132v.133l.266-.132v.133h.53c.185-.044-.053-.132.135-.132v.133h.134c.41-.103.56-.243 1.195-.264-.065-.585-.313-.804-.532-1.19v-.266l-.266-.132v-.264c-.088-.044-.177-.09-.266-.132-.065-.257.078-.177.133-.265.094-.483.32-.78.53-1.188h.134c.044-.266.09-.53.133-.794h.132v-.265l.398-.264.133-.53.533-.396v-.265c.354-.266.71-.53 1.063-.794v-.133h.266v-.264c.36-.096.41-.218.665-.398v-.132h.53v-.132l1.596-.132c.25.362.736.376.93.66.044.22.09.44.133.662l.266.132v1.19h.133c-.09.66-.177 1.322-.266 1.983h-.134c-.09.44-.177.882-.265 1.323h-.133v.264c-.088.044-.176.09-.265.132v.265l-.266.132c-.044.175-.09.35-.133.528l-.4.264v.264c-.088.045-.176.09-.264.133-.18.22-.356.44-.533.66h-.266l-.132.265h-.266c-.09.132-.177.264-.265.396h-.532v.133c-.19.11-.227.1-.532.133.147.824.6 1.258.665 2.115.514.14.398.3.664.662.133.09.266.177.4.265v.132l.398.132.265.396h.4l.132.265h.266v.13h.4c.043.09.088.178.132.266h.53c.846.278 1.92.256 3.058.264.098-.187.24-.4.4-.53v-.66h.265l.133-.397h.133v-.265h.133v-.264c.134-.088.266-.177.4-.264V38.9h.132l.133-.662h.266c.052-.236.11-.533.267-.66h.265l.266-.398c.202-.196.484-.312.664-.53h.798l.133.266h.53c.36.162.516.38.532.925h.134v.927h-.134l-.133.793h-.133v.265h-.133v.264c-.09.043-.178.087-.266.132v.264l-.266.132v.265c-.088.044-.177.088-.266.13-.044.134-.09.266-.132.398h-.267c-.102.426-.2.287-.265.795.322.213.084.104.265.396h.133v.266l.4.265.132.53.266.132c.304.323.595.63.798 1.057l.132-.133.798.265.133.264h.53v.132h.798v-.132h.664v-.132c.61-.24.966-.15 1.063-.926-.287-.233-.323-.604-.53-.926-.077-.116-.34-.146-.4-.396l.53-.397c.09-.397.18-.794.268-1.19h.132v-.266l.266-.13v-.266l.267-.132c.09-.264.177-.53.266-.794l.265-.132v-.264l.532-.397c.42-.433.373-.85 1.197-.926.683.8 1.214.516 1.195 2.115h-.132v.132c.15.264.122.74.132 1.19h-.265l-.134.66.134.133h-.134l-.132.66h-.132c-.045.266-.09.53-.133.794.133.043.266.087.398.132v.13h.267v.134h.797v.132h.532v.132h.53v.133h.4v.132h.53v.132h.134v-.132l1.33.264c1.593-.662 3.188-1.323 4.783-1.984l.133-.397h.133v-.265h.133v-.53c.054-.113.164-.003.266-.396h.265c.09.264.178.528.267.793h.132l-.132.264h.132c.132.483-.213 1.405-.4 1.586-.15.15 0 .053-.264.133v.397c-.283.16-.29.298-.665.396v.264L41.2 46.17h-.398v.134h-.4v.132h-.264v.132h-.4v.133h-.265v.132h-.532v.133h-.663v.132h-.664v.132h-.134v-.133l-1.064.132v-.133h-.664v-.132h-.665v-.133h-.665v-.13h-.265v-.134l-1.197-.132c-.445-.158-.673-.358-1.33-.396v.13h-.264l-.133.266h-.266v.132H30.7c-.087.133-.176.264-.265.397h-.4v.132h-.264v.132l-1.062.13c-1.268.382-2.236.222-3.456-.263-.398-.132-.797-.265-1.196-.396-.044-.088-.09-.176-.133-.264h-.266l-.532-.66-.265-.133v-.265l-.4-.264-.132-.53-.266-.13v-.266l-.266-.265v-.264h-.133v-.265h-.132v-.133H21.4v-.13h-2.526v-.134h-.797v-.132l-.798-.132V42.6l-.797-.263v-.132h-.266v-.132l-.265-.133v-.264l-.4-.132c-.22-.265-.443-.53-.665-.794l-.265-.132v-.265l-.665-.528-.133-.397h-.266v-.264c-.33-.215-.31-.465-.53-.794l-.267-.132c-.18-.353-.355-.705-.533-1.058h-2.26v-.132c-.264-.067-.398.132-.398.132-.577-.088-1.153-.177-1.73-.264v-.133l-.663-.132-.134-.263c-.265-.09-.53-.176-.796-.265l-.532-.66c-.178-.045-.355-.09-.532-.133l-.398-.53h-.267l-.132-.265-.665-.528v-.265l-.664-.53-.132-.528H2.79l-.132-.397-.266-.13v-.398H2.26l-.134-.53h-.133v-.397H1.86v-.396H1.73v-.265h-.134v-.528h-.132v-.53H1.33v-.396h-.134v-.265h-.133v-.528H.93v-.265H.797l-.133-.794H.53v-.396H.4v-.53H.265v-.263H.132L0 23.032v-1.72h.132v-.528h.134v-.528H.4v-.397h.13v-.662h.134v-.265h.133v-1.058c.432-1.412.636-3.052.93-4.627z" mask="url(#b)"/></g></svg>